<svg width="145" height="29" viewBox="0 0 145 29" fill="none" xmlns="http://www.w3.org/2000/svg">
<path d="M0 4.27069C0 1.91205 1.91205 0 4.27069 0H140.729C143.088 0 145 1.91205 145 4.27069V24.4039C145 26.7626 143.088 28.6746 140.729 28.6746H4.27069C1.91206 28.6746 0 26.7626 0 24.4039V4.27069Z" fill="white"/>
<path d="M136.275 8.95372C136.044 8.82118 135.861 8.64025 135.731 8.40883C135.598 8.17741 135.533 7.91655 135.533 7.62623C135.533 7.33591 135.598 7.07714 135.731 6.84782C135.863 6.61851 136.044 6.43759 136.275 6.30294C136.506 6.1683 136.767 6.10098 137.057 6.10098C137.347 6.10098 137.605 6.1683 137.834 6.30294C138.063 6.43759 138.244 6.61851 138.379 6.84782C138.513 7.07714 138.58 7.33591 138.58 7.62623C138.58 7.91655 138.513 8.17741 138.379 8.40883C138.244 8.64025 138.061 8.82328 137.83 8.95372C137.599 9.08626 137.341 9.15147 137.057 9.15147C136.773 9.15147 136.506 9.08626 136.275 8.95372ZM137.685 8.70547C137.872 8.59817 138.017 8.4488 138.122 8.25946C138.227 8.07012 138.28 7.85553 138.28 7.61991C138.28 7.38429 138.227 7.18443 138.122 6.99509C138.017 6.80575 137.87 6.65638 137.681 6.54908C137.492 6.44179 137.284 6.38709 137.057 6.38709C136.83 6.38709 136.616 6.44179 136.429 6.54908C136.241 6.65638 136.096 6.80575 135.991 6.99509C135.886 7.18443 135.834 7.39481 135.834 7.62623C135.834 7.85764 135.886 8.06802 135.991 8.25736C136.096 8.4467 136.244 8.59607 136.433 8.70337C136.622 8.81066 136.83 8.86536 137.057 8.86536C137.284 8.86536 137.498 8.81066 137.685 8.70337V8.70547ZM136.513 6.82889H137.128C137.282 6.82889 137.401 6.87307 137.488 6.95932C137.574 7.04558 137.618 7.16129 137.618 7.30224C137.618 7.39271 137.595 7.47265 137.551 7.54628C137.507 7.61992 137.444 7.67251 137.366 7.70407L137.807 8.42356H137.46L137.065 7.76718H136.805V8.42356H136.513V6.82679V6.82889ZM137.259 7.45792C137.303 7.41795 137.326 7.36746 137.326 7.30434C137.326 7.23492 137.303 7.18233 137.259 7.14235C137.214 7.10238 137.154 7.08345 137.08 7.08345H136.805V7.51893H137.08C137.154 7.51893 137.212 7.5 137.259 7.46003V7.45792Z" fill="#002969"/>
<path d="M130.014 20.3578V11.4187H132.267V12.5893C132.421 12.3646 132.633 12.1518 132.905 11.9508C133.189 11.7498 133.52 11.5902 133.899 11.4719C134.289 11.3419 134.714 11.2768 135.176 11.2768C135.814 11.2768 136.382 11.4128 136.878 11.6848C137.375 11.9449 137.765 12.3233 138.049 12.8199C138.344 13.3047 138.492 13.9018 138.492 14.6112V20.3578H136.24V15.0901C136.24 14.6999 136.169 14.3688 136.027 14.0969C135.885 13.8249 135.684 13.618 135.424 13.4761C135.164 13.3224 134.862 13.2455 134.519 13.2455C134.046 13.2455 133.638 13.3756 133.296 13.6357C132.964 13.884 132.71 14.2506 132.533 14.7354C132.356 15.2084 132.267 15.7877 132.267 16.4735V20.3578H130.014Z" fill="#002969"/>
<path d="M122.93 20.3578V11.4187H125.183V12.6248C125.348 12.341 125.561 12.0986 125.821 11.8976C126.081 11.6848 126.377 11.531 126.708 11.4365C127.051 11.33 127.412 11.2768 127.79 11.2768C127.979 11.2768 128.174 11.2946 128.375 11.33C128.576 11.3537 128.748 11.3951 128.89 11.4542L128.73 13.5825C128.564 13.4998 128.381 13.4466 128.18 13.4229C127.991 13.3993 127.796 13.3874 127.595 13.3874C127.276 13.3874 126.968 13.4584 126.673 13.6003C126.389 13.7422 126.129 13.955 125.892 14.2388C125.668 14.5225 125.49 14.895 125.36 15.3562C125.242 15.8055 125.183 16.3435 125.183 16.9701V20.3578H122.93Z" fill="#002969"/>
<path d="M116.256 20.4996C115.63 20.4996 115.086 20.3873 114.624 20.1627C114.163 19.9262 113.803 19.6069 113.543 19.2049C113.294 18.8029 113.17 18.3595 113.17 17.8747C113.17 16.9879 113.478 16.308 114.092 15.835C114.719 15.3502 115.712 15.0369 117.072 14.895L118.988 14.6999V16.3139L117.161 16.5445C116.747 16.5918 116.404 16.6686 116.132 16.775C115.872 16.8696 115.677 16.9997 115.547 17.1652C115.429 17.3308 115.369 17.5377 115.369 17.786C115.369 18.1053 115.488 18.3595 115.724 18.5487C115.972 18.726 116.298 18.8147 116.7 18.8147C117.125 18.8147 117.498 18.7083 117.817 18.4955C118.136 18.2826 118.379 17.9988 118.544 17.6441C118.722 17.2894 118.81 16.8992 118.81 16.4735V14.5225C118.81 14.2033 118.739 13.9372 118.597 13.7244C118.455 13.4998 118.26 13.3283 118.012 13.2101C117.764 13.08 117.468 13.015 117.125 13.015C116.806 13.015 116.522 13.0682 116.274 13.1746C116.026 13.281 115.825 13.4465 115.671 13.6712C115.517 13.8959 115.423 14.1796 115.387 14.5225L113.241 14.2033C113.347 13.6121 113.578 13.0977 113.933 12.6602C114.299 12.2228 114.755 11.8858 115.298 11.6493C115.854 11.401 116.463 11.2768 117.125 11.2768C117.894 11.2768 118.574 11.4128 119.165 11.6848C119.756 11.9567 120.217 12.3587 120.548 12.8908C120.879 13.4111 121.045 14.0555 121.045 14.8241V20.3578H118.81V19.2226C118.68 19.4591 118.485 19.6779 118.225 19.8789C117.977 20.0681 117.681 20.2218 117.338 20.34C116.995 20.4464 116.635 20.4996 116.256 20.4996ZM117.125 10.7447C116.522 10.7447 116.032 10.5615 115.653 10.1949C115.275 9.82836 115.086 9.36722 115.086 8.81149C115.086 8.43311 115.168 8.10204 115.334 7.81826C115.511 7.52266 115.754 7.29208 116.061 7.12655C116.369 6.94919 116.723 6.8605 117.125 6.8605C117.74 6.8605 118.237 7.04969 118.615 7.42806C119.005 7.79461 119.2 8.25575 119.2 8.81149C119.2 9.17804 119.112 9.50911 118.934 9.80471C118.769 10.1003 118.526 10.3309 118.207 10.4964C117.9 10.662 117.539 10.7447 117.125 10.7447ZM117.143 9.68056C117.403 9.68056 117.61 9.59188 117.764 9.41452C117.929 9.23716 118.012 9.03023 118.012 8.79375C118.012 8.55727 117.929 8.35626 117.764 8.19072C117.61 8.02518 117.403 7.94241 117.143 7.94241C116.871 7.94241 116.652 8.02518 116.487 8.19072C116.333 8.35626 116.256 8.55727 116.256 8.79375C116.256 9.03023 116.333 9.23716 116.487 9.41452C116.652 9.59188 116.871 9.68056 117.143 9.68056Z" fill="#002969"/>
<path d="M110.895 20.4996C110.304 20.4996 109.766 20.3814 109.281 20.1449C108.808 19.9084 108.43 19.5596 108.146 19.0985C107.874 18.6255 107.738 18.052 107.738 17.3781V9.23715H109.99V17.183C109.99 17.6323 110.097 17.9752 110.31 18.2117C110.534 18.4363 110.83 18.5487 111.196 18.5487C111.35 18.5487 111.498 18.5309 111.64 18.4955C111.794 18.46 111.947 18.4186 112.101 18.3713L112.261 20.2691C112.071 20.34 111.853 20.3932 111.604 20.4287C111.368 20.476 111.131 20.4996 110.895 20.4996ZM106.301 13.2455V11.4187H112.101V13.2455H106.301Z" fill="#002969"/>
<path d="M100.604 20.3578V11.4187H102.857V12.6248C103.058 12.2819 103.3 12.0158 103.584 11.8266C103.879 11.6375 104.187 11.5015 104.506 11.4187C104.825 11.3241 105.115 11.2768 105.375 11.2768C105.505 11.2768 105.612 11.2827 105.694 11.2946C105.777 11.2946 105.842 11.3005 105.89 11.3123L105.748 13.4938C105.7 13.482 105.623 13.4702 105.517 13.4584C105.422 13.4347 105.316 13.4229 105.198 13.4229C104.879 13.4229 104.577 13.4938 104.293 13.6357C104.021 13.7658 103.773 13.9727 103.548 14.2565C103.336 14.5403 103.164 14.9127 103.034 15.3739C102.916 15.835 102.857 16.3908 102.857 17.0411V20.3578H100.604Z" fill="#002969"/>
<path d="M92.368 23.5858L94.6382 18.2294L97.2277 11.4187H99.5866L94.7269 23.5858H92.368ZM94.1771 21.0672L90.3106 11.4187H92.7405L95.2235 17.8924L94.1771 21.0672Z" fill="#002969"/>
<path d="M85.6047 20.3578V10.6916C85.6047 9.99394 85.7466 9.40865 86.0304 8.93568C86.3141 8.46272 86.6925 8.10799 87.1655 7.87151C87.6503 7.63503 88.1883 7.51678 88.7795 7.51678C89.0396 7.51678 89.282 7.53452 89.5067 7.56999C89.7431 7.60547 89.956 7.66459 90.1452 7.74736L89.9855 9.64513C89.8082 9.57418 89.6486 9.52689 89.5067 9.50324C89.3648 9.46777 89.217 9.45003 89.0633 9.45003C88.8268 9.45003 88.6199 9.50324 88.4425 9.60966C88.2651 9.71607 88.1232 9.8757 88.0168 10.0885C87.9104 10.2895 87.8572 10.5379 87.8572 10.8335V20.3578H85.6047ZM84.1681 13.2456V11.4188H89.9855V13.2456H84.1681Z" fill="#002969"/>
<path d="M78.8269 20.4997C77.9282 20.4997 77.1242 20.3046 76.4147 19.9144C75.7053 19.5124 75.1496 18.9685 74.7475 18.2827C74.3455 17.585 74.1445 16.781 74.1445 15.8705C74.1445 15.1966 74.2568 14.5817 74.4815 14.026C74.718 13.4702 75.0431 12.9855 75.457 12.5716C75.8826 12.1578 76.3793 11.8385 76.9468 11.6139C77.5262 11.3892 78.1529 11.2769 78.8269 11.2769C79.7373 11.2769 80.5414 11.472 81.239 11.8622C81.9484 12.2524 82.5042 12.7963 82.9062 13.4939C83.3082 14.1797 83.5092 14.9778 83.5092 15.8883C83.5092 16.5623 83.391 17.183 83.1545 17.7506C82.9298 18.3063 82.6047 18.7911 82.179 19.2049C81.7652 19.6188 81.2745 19.938 80.7069 20.1627C80.1393 20.3874 79.5127 20.4997 78.8269 20.4997ZM78.8269 18.5842C79.1816 18.5842 79.5067 18.5191 79.8024 18.3891C80.098 18.2472 80.3522 18.058 80.565 17.8215C80.7778 17.585 80.9434 17.3013 81.0616 16.9702C81.1799 16.6391 81.239 16.2726 81.239 15.8705C81.239 15.3385 81.1326 14.8714 80.9197 14.4694C80.7187 14.0674 80.4409 13.754 80.0861 13.5294C79.7314 13.3047 79.3116 13.1924 78.8269 13.1924C78.4721 13.1924 78.147 13.2574 77.8514 13.3875C77.5558 13.5175 77.3015 13.7008 77.0887 13.9373C76.8759 14.1738 76.7103 14.4576 76.5921 14.7886C76.4739 15.1197 76.4147 15.4803 76.4147 15.8705C76.4147 16.4145 76.5152 16.8874 76.7162 17.2894C76.9291 17.6915 77.2188 18.0107 77.5853 18.2472C77.9519 18.4719 78.3657 18.5842 78.8269 18.5842ZM75.4747 20.9076L74.4105 19.9853L82.2499 10.8512L83.3141 11.7912L75.4747 20.9076Z" fill="#002969"/>
<path d="M69.5817 23.7276C69.4398 23.7276 69.3038 23.7217 69.1738 23.7099C69.0319 23.6981 68.89 23.6803 68.7481 23.6567L68.8191 21.7766C68.89 21.7885 68.9728 21.7944 69.0674 21.7944C69.1501 21.8062 69.2329 21.8121 69.3157 21.8121C69.5994 21.8121 69.8182 21.7471 69.9719 21.617C70.1256 21.4869 70.232 21.2978 70.2912 21.0494C70.3503 20.813 70.3798 20.5292 70.3798 20.1981V11.4187H72.6323V20.4819C72.6323 21.1677 72.5141 21.753 72.2776 22.2378C72.053 22.7226 71.716 23.0891 71.2666 23.3374C70.8173 23.5975 70.2557 23.7276 69.5817 23.7276ZM70.3798 13.2455V11.4187H72.6323V13.2455H70.3798ZM71.4972 10.2304C71.0834 10.2304 70.7405 10.1003 70.4685 9.84016C70.1966 9.56821 70.0606 9.23122 70.0606 8.8292C70.0606 8.55724 70.1197 8.32076 70.2379 8.11975C70.368 7.90692 70.5395 7.74138 70.7523 7.62314C70.977 7.49307 71.2253 7.42804 71.4972 7.42804C71.9111 7.42804 72.254 7.56402 72.5259 7.83597C72.8097 8.0961 72.9516 8.42718 72.9516 8.8292C72.9516 9.08933 72.8866 9.32581 72.7565 9.53865C72.6264 9.75148 72.455 9.92293 72.2421 10.053C72.0293 10.1712 71.781 10.2304 71.4972 10.2304Z" fill="#002969"/>
<path d="M65.8259 20.3577V7.80051H68.0784V20.3577H65.8259ZM65.8259 20.3577V18.5309H68.0784V20.3577H65.8259ZM65.8259 9.62734V7.80051H68.0784V9.62734H65.8259Z" fill="#002969"/>
<path d="M61.272 20.3577V11.4187H63.5245V20.3577H61.272ZM61.272 20.3577V18.5309H63.5245V20.3577H61.272ZM61.272 13.2455V11.4187H63.5245V13.2455H61.272ZM62.4072 10.2304C61.9933 10.2304 61.6504 10.1003 61.3785 9.84016C61.1065 9.56821 60.9705 9.23122 60.9705 8.8292C60.9705 8.55724 61.0296 8.32076 61.1479 8.11975C61.2779 7.90692 61.4494 7.74138 61.6622 7.62314C61.8869 7.49307 62.1352 7.42804 62.4072 7.42804C62.821 7.42804 63.1639 7.56402 63.4359 7.83597C63.7196 8.0961 63.8615 8.42718 63.8615 8.8292C63.8615 9.08933 63.7965 9.32581 63.6664 9.53865C63.5364 9.75148 63.3649 9.92293 63.1521 10.053C62.9392 10.1712 62.6909 10.2304 62.4072 10.2304Z" fill="#002969"/>
<path d="M44.9439 20.3577V7.94238H48.3138L51.0806 14.5757C51.2698 15.0487 51.4235 15.4744 51.5418 15.8527C51.6718 16.2311 51.7664 16.5326 51.8256 16.7573C51.8965 16.9819 51.932 17.0943 51.932 17.0943C51.932 17.0943 51.9615 16.9819 52.0207 16.7573C52.0916 16.5326 52.1921 16.2311 52.3222 15.8527C52.4522 15.4744 52.6119 15.0546 52.801 14.5935L55.5679 7.94238H58.8491V20.3577H56.437V13.9017C56.437 13.3815 56.4429 12.9263 56.4547 12.5361C56.4665 12.134 56.4784 11.8148 56.4902 11.5783C56.502 11.3418 56.5079 11.2236 56.5079 11.2236C56.5079 11.2236 56.4665 11.3359 56.3838 11.5606C56.3128 11.7734 56.2064 12.069 56.0645 12.4474C55.9226 12.8258 55.7571 13.2514 55.5679 13.7244L52.8188 20.3577H50.9742L48.2251 13.7244C48.0359 13.2514 47.8704 12.8317 47.7285 12.4651C47.5984 12.0867 47.492 11.7911 47.4092 11.5783C47.3383 11.3536 47.3028 11.2413 47.3028 11.2413C47.3028 11.2413 47.3087 11.3596 47.3206 11.596C47.3324 11.8207 47.3383 12.134 47.3383 12.5361C47.3501 12.9263 47.356 13.3815 47.356 13.9017V20.3577H44.9439Z" fill="#002969"/>
<rect x="3.25385" y="3.25385" width="35.1402" height="22.1669" rx="1.63443" fill="#00ACEB"/>
<path d="M27.1774 22.273C31.5377 22.273 35.0725 18.7243 35.0725 14.3468C35.0725 9.96924 31.5377 6.42056 27.1774 6.42056C22.817 6.42056 19.2823 9.96924 19.2823 14.3468C19.2823 18.7243 22.817 22.273 27.1774 22.273Z" fill="#002969"/>
<path d="M6.71537 7.46988L21.189 19.514L26.1705 6.48401L7.08456 6.50488C6.57983 6.50488 6.34036 7.13013 6.71537 7.46988Z" fill="white"/>
<path d="M26.1716 6.48401C23.3869 6.84547 20.884 8.69032 19.8072 11.5069C18.7304 14.3234 19.3616 17.3753 21.19 19.5149C23.9747 19.1534 26.4776 17.3086 27.5544 14.492C28.6312 11.6755 28 8.62354 26.1716 6.48401Z" fill="#1CC600"/>
</svg>
